PathFileType	4	(X/Y/Z)	OpenSim_Sub10_EMGBaseline_Accel.trc
DataRate	CameraRate	NumFrames	NumMarkers	Units	OrigDataRate	OrigDataStartFrame	OrigNumFrames
100	100	41	8	m	100	1026	8201
Frame#	Time	torso_imu_offset_imu	pelvis_imu_offset_imu	tibia_r_imu_offset_imu	femur_r_imu_offset_imu	tibia_l_imu_offset_imu	femur_l_imu_offset_imu	toes_r_imu_offset_imu	toes_l_imu_offset_imu
				X1	Y1	Z1	X2	Y2	Z2	X3	Y3	Z3	X4	Y4	Z4	X5	Y5	Z5	X6	Y6	Z6	X7	Y7	Z7	X8		Y8	Z8	

1026	10.25000000	8.28774200	-0.64865000	6.50629300	8.14533200	2.61673000	2.58942800	9.85990000	-0.14043500	-0.14913200	8.75312900	0.13228700	-0.48767600	9.75908200	-3.56831400	2.55756400	6.34291300	3.21714600	0.90086900	4.88252900	0.43148900	8.81585600	19.82579700	2.64272300	16.66522100
1027	10.26000000	8.18649000	-0.74911500	6.43142500	7.89812100	2.73932800	2.68151800	9.88758600	0.15969300	-0.18500800	8.93000000	0.10888900	-0.32772500	12.23526700	-1.39900000	2.39168700	6.26578400	3.57761200	1.29394700	4.96396900	0.21658500	8.67735900	19.37674800	-0.54800800	13.23433700
1028	10.27000000	8.14886100	-0.81762100	6.35686000	7.83733500	2.87972300	2.83927300	9.90823100	0.32246900	-0.14287200	9.29759000	0.03637000	-0.33445200	14.26431000	1.08125500	1.92049000	6.39682900	4.02007700	1.39719900	4.70581400	0.15805600	8.91466200	20.12534500	-0.33420100	10.53777600
1029	10.28000000	8.16023700	-0.82251200	6.34161700	7.87795100	2.99233100	2.95739400	9.97388700	0.39755800	-0.04644000	9.48222900	-0.13760700	-0.49472700	14.78494900	3.45821800	1.75354400	6.70122800	4.49987700	1.58238800	4.87468900	0.12593500	8.73342800	22.35759100	0.78874000	9.09042000
1030	10.29000000	8.30023900	-0.82882200	6.29942600	7.94720900	2.99980800	2.97678300	9.96710900	0.58725100	-0.02502900	9.44991400	-0.45104700	-0.65845600	14.84824200	2.92906900	1.27568300	7.08762200	4.97612800	1.82353000	4.63153000	0.24714100	8.91440000	23.88455000	-1.71609800	6.12886300
1031	10.30000000	8.29902500	-0.84448200	6.26559800	7.96234000	3.07306800	3.12503800	9.94929200	0.70807900	0.18576000	9.36969200	-0.60648100	-0.79203500	14.35644500	1.00651000	0.91610500	7.52038300	5.87087000	1.83840000	4.76863600	0.25645800	8.86181900	23.81260000	-2.01583100	3.27192900
1032	10.31000000	8.47188000	-0.93230900	6.11249800	8.02351100	3.00980700	3.24260700	9.90431300	0.53223400	0.18460700	9.22015600	-0.67278900	-0.81773400	13.03459900	-1.30291800	0.67424600	7.72611400	7.15773700	1.59557200	4.88774800	0.43181100	8.87193100	23.80491700	-0.52143000	1.16682600
1033	10.32000000	8.60844900	-0.89397600	6.04370200	8.12538700	2.71947300	3.13299700	9.90843800	0.34056900	-0.16002300	9.05737000	-0.64588500	-0.72467100	10.88016600	-4.14250300	-0.07319500	7.61269600	8.89798400	0.76140900	4.88204000	0.28631000	8.85982500	22.32634100	-0.49865500	-1.03874700
1034	10.33000000	8.76303600	-0.99793400	5.91212000	8.30720900	2.38338200	2.93087000	10.00187700	0.01854800	-0.12471100	8.98496500	-0.52141500	-0.68899400	8.30576400	-5.40359700	-0.34033500	7.31691600	11.07714800	-0.10009200	5.00921200	-0.02566700	8.83611500	21.12288000	-1.12219100	-2.59457500
1035	10.34000000	8.83158800	-1.02150900	5.89700700	8.60219600	2.07591600	2.67869700	10.09515900	-0.21358300	-0.45690000	8.95225100	-0.27840800	-0.68313200	7.25127400	-3.90103600	0.04637000	7.10754600	11.68323200	-0.64174600	4.82994300	0.13337300	8.96172200	20.81958600	-0.08185600	-3.00677600
1036	10.35000000	9.07178300	-0.96609200	5.94182000	8.91148500	1.91063200	2.39182500	10.16586900	-0.36804800	-0.38386400	8.95539000	-0.02870000	-0.72311200	8.17602300	-2.07480800	0.35617200	6.95423300	10.47684900	-0.82314500	4.75924600	0.20978700	8.99095300	19.36161600	0.90958000	-3.29598000
1037	10.36000000	9.24191600	-0.95173800	6.03037900	9.10985700	1.89392000	2.06842100	10.16229300	-0.21614200	-0.27657300	8.98652600	-0.01118900	-0.86252200	9.18942300	-1.95411100	0.03982600	6.86516700	8.97270400	-1.13795900	4.41236800	-0.00327100	9.25105600	17.20970100	1.16358200	-2.94927800
1038	10.37000000	9.43188800	-0.82382300	6.06921100	9.26170200	1.98225400	1.74697100	10.28243100	0.26444100	0.00392600	9.11247300	-0.21173700	-1.12641000	8.45205200	-3.25398600	-0.78180000	6.98939400	7.60056500	-0.91804400	4.91717000	0.22264100	9.10580900	15.11919800	1.93986100	-0.98009900
1039	10.38000000	9.52137600	-0.78614500	6.17326400	9.34964300	2.29557300	1.50314400	10.51882300	1.00907300	0.47450400	9.25887900	-0.40455900	-1.55097800	7.16851100	-4.62969600	-1.41174900	7.07276500	6.03222100	0.28096900	4.52406900	0.48394000	9.43405400	13.86211000	-0.06824700	-7.15346800
1040	10.39000000	9.69670700	-0.72104800	6.36865900	9.60161900	2.57491000	1.64855700	10.83554300	1.64592100	0.77426900	9.42556600	-0.61375600	-1.71232800	6.97353200	-4.46929100	-1.70396300	7.39384500	4.32532300	1.42600000	4.75326800	0.78056000	9.57153000	13.86570000	4.54456800	-9.17752200
1041	10.40000000	10.03798000	-0.74348200	6.36053800	9.94660900	2.79665200	1.87588600	11.37256300	1.92945500	0.95041200	9.69601600	-0.84347800	-1.91433500	8.45916900	-3.17058100	0.00500800	7.78498000	2.59868900	2.36351800	4.96720500	1.75084000	9.73683000	11.19499300	2.90353800	1.80935200
1042	10.41000000	10.45946200	-0.61504600	6.68312700	10.51739600	2.91378900	2.55856600	11.77142600	1.68926900	1.83493300	10.04602900	-1.18757500	-2.12679600	10.61263200	-3.44670800	0.78367900	8.07946700	1.35597400	3.00193900	4.70390800	1.94017100	10.50844700	12.06275400	-1.13011700	22.68894100
1043	10.42000000	11.19186000	-0.47591300	6.90540300	11.29350800	2.85926000	3.97371900	12.19401700	0.80685200	1.90916000	10.58436200	-1.45259800	-2.11544800	12.93965500	-1.40147200	0.07334800	9.40576200	1.03618600	2.42924400	4.61243600	0.33995700	9.99057500	5.50117700	-16.78942000	16.76709900
1044	10.43000000	12.20693100	-0.18848300	7.30231800	12.26329300	2.47630500	5.14821300	12.81899500	-0.66040600	1.62580100	11.38402500	-1.61958700	-1.90979500	17.50410500	4.58555700	3.78766400	13.14071000	2.30388100	1.07802500	4.20186600	1.28014100	11.29794100	10.75978300	-9.23714300	15.51749200
1045	10.44000000	12.96558300	0.26245200	7.65539000	13.22157300	1.70040100	5.09254600	13.53250900	-2.34157800	1.84414200	11.89565100	-1.96150200	-1.48495200	19.33143700	5.30235400	8.54973100	17.20578700	5.19135000	-0.27169200	4.01217200	-0.43089900	10.96407000	14.53869300	3.99940000	15.95381300
1046	10.45000000	13.26049800	0.67182300	7.46276000	13.75383800	0.68777000	4.63114200	14.11278400	-3.73400800	2.61125900	12.13180100	-1.97778300	-0.76572200	14.05361300	-0.45312900	8.30087100	17.78936800	6.69952300	-0.65998400	3.47265300	-0.56879900	11.00203500	7.59609800	9.43307400	12.95832500
1047	10.46000000	12.60878600	0.21790100	6.73314900	13.34598500	0.02197100	4.60793800	14.20146000	-4.40525100	2.93411900	12.34433300	-1.50707700	-0.11189400	8.96179600	-5.32410600	4.34577700	15.65199700	5.77932400	-1.53524100	3.94211300	-0.04240900	11.19456900	14.22977600	1.06153900	14.73405400
1048	10.47000000	11.49635200	0.35272300	6.73928100	12.20581900	0.10597300	4.97685700	13.79435600	-3.85281200	2.47989000	12.63663100	-1.32165200	0.23243500	7.59962000	-8.34074400	0.49644000	11.88127500	3.74088600	-1.78333600	3.58034500	-0.90576000	11.08976600	19.82239500	-2.49309400	17.81135000
1049	10.48000000	11.34531000	0.70208700	6.82321700	11.09957400	0.37888200	5.22441600	13.65005800	-2.16819900	2.31462600	12.94133400	-1.58037800	0.28979700	7.61761500	-11.62178600	-2.53473200	9.51191200	2.35046400	-0.84953700	3.90075900	-0.69391500	11.75100500	4.25616800	-1.26740400	9.71676100
1050	10.49000000	12.00104300	0.62542200	6.40351800	10.53380100	0.58123400	4.90965800	14.23184400	-0.68135300	2.27165100	12.84860300	-1.92418300	0.24312500	7.35712300	-13.94510200	-4.91672100	8.87504700	1.79102100	-0.40722300	3.63911300	-0.98115000	11.65205800	7.66554200	2.96633500	11.60587600
1051	10.50000000	12.18361400	0.73941500	6.38021200	10.34427700	0.78102600	4.86782400	14.77798400	0.78290700	2.66622800	12.16703600	-2.08206300	0.49888200	8.89855800	-13.01841700	-5.08981400	8.92362100	1.25939200	-0.30642900	5.49667400	-1.01658000	11.03222700	8.37437100	0.82014100	11.06962700
1052	10.51000000	11.95905400	0.95685100	6.22401300	10.34553500	0.94736700	5.19099900	14.59982100	1.75415900	0.74351900	11.19533500	-1.94467600	1.19698700	9.43439100	-8.94194400	-3.41548300	9.76349600	0.20514200	-0.91789900	5.02000900	-0.43647800	11.11390800	6.55060200	1.87738600	11.22840900
1053	10.52000000	11.41156000	1.00404200	5.96312100	10.38705200	0.88819000	5.33785100	13.96141100	1.69183000	-0.93334500	10.32453200	-1.53714600	1.81788300	8.76121000	-5.52434600	-1.30187200	10.85747800	-0.61756400	-2.35110700	5.71302100	-0.03170100	10.55516300	6.83905700	2.19683800	10.56000500
1054	10.53000000	10.73543900	0.91511100	5.67160500	10.14873600	0.68958700	5.53533100	13.06151900	1.14773900	-0.68848400	9.62023300	-0.84380400	1.88797400	8.27827500	-3.21411800	0.07394700	11.22344700	-1.00778700	-3.36001500	11.62160600	0.47403200	12.09472900	6.20054400	0.40468200	10.73388700
1055	10.54000000	10.03050300	0.86107500	5.51109300	9.92523800	0.39468200	5.83530900	11.86394000	1.40763000	-0.85723200	9.13414200	-0.14796800	1.66643900	8.80967300	-2.09223700	1.12119300	11.05277500	-0.79077900	-3.83265500	17.40033700	0.82895500	13.65030400	6.08439100	0.54492900	10.99069800
1056	10.55000000	9.47165500	0.91978300	5.31726000	9.59752500	0.24796900	5.88854000	10.71821800	2.52405900	-1.02526800	9.08748300	0.42417800	1.50386500	10.32947200	-1.62124600	0.88916800	10.38861800	-0.49144100	-3.66031100	7.64011300	-1.86112000	7.91136400	5.09129800	-0.08232300	11.43376300
1057	10.56000000	9.20079800	0.91448900	5.08721900	9.32466300	0.10545800	5.65314200	9.94747300	4.07849500	-0.25075400	9.69968000	0.78917600	1.43792800	12.25818100	-1.60281400	-1.04647500	9.76485500	0.17245600	-2.85364400	10.42397500	1.30122100	9.61335800	5.16840000	-0.06402900	11.37753700
1058	10.57000000	9.03460900	0.90654300	4.88255300	9.06734500	0.21747600	5.34226900	9.26363100	5.67727500	0.78050800	10.48536600	1.30810000	1.53755000	12.08584900	-2.01337000	-0.90699700	9.63774500	1.09197700	-2.18166200	20.19323000	3.00744100	14.37277800	5.38363000	0.57098700	11.17422500
1059	10.58000000	8.78914000	0.89038500	4.73543300	8.91400500	0.40496000	4.98310200	8.77950100	7.32150200	1.41628900	11.07535200	1.68952000	1.77552500	10.41477200	-2.98072800	-0.67943400	9.52732200	1.96277200	-2.03033800	14.05214000	-5.90165100	7.44367000	5.80118500	0.88004100	10.86445200
1060	10.59000000	8.57664400	0.89478100	4.68308800	8.69896500	0.63388800	4.76589500	8.34477900	8.55204800	1.15636400	11.64606800	1.86593600	1.94000100	9.65713800	-3.68415700	-1.11158000	9.45838500	2.83165000	-2.19108400	9.09216000	-2.35824300	9.67010200	5.54845200	0.59731000	10.88944600
1061	10.60000000	8.47061000	0.86554200	4.76678500	8.64612100	0.75331200	4.78423400	7.97507700	9.91149700	-0.04966500	12.01822500	1.82143100	2.17268200	9.66406600	-4.38110000	-1.49883900	9.44987500	3.47955800	-2.27133900	12.42751200	6.69671400	19.36223100	5.46873700	0.45979800	10.97752400
1062	10.61000000	8.51896600	0.87124600	4.95019600	8.86840100	0.72558200	4.73377200	7.20522300	10.75199900	-1.75589100	12.16503400	1.73583700	2.42498900	9.38965100	-4.85906100	-1.31147400	9.39675000	3.82439600	-2.35651600	12.48978200	1.87953000	18.22795800	5.75394200	0.52072700	10.96461400
1063	10.62000000	8.71813500	0.82228700	5.15217500	9.01351700	0.47905200	4.67081600	6.28830400	10.93105700	-1.97968900	12.13466700	1.50543100	2.49865300	9.12870000	-5.09656900	-1.63075500	8.98160700	3.93003400	-2.42427600	2.43694100	-5.65424900	11.17297500	5.70703100	0.39512000	10.83201500
1064	10.63000000	8.86678700	0.75825200	5.26564100	9.16168100	0.28732400	4.58429600	5.37760500	10.09872600	-0.15279900	12.00824200	1.23717600	2.21833600	9.02285600	-4.31847700	-1.31956700	8.34005100	3.77912000	-2.16140700	0.25595900	-4.10972500	9.19728900	5.40893300	0.72576500	10.93730700
1065	10.64000000	8.90641800	0.65309800	5.43575700	9.12903500	0.05865500	4.38802600	4.81972300	8.76004400	1.68737700	11.42625300	0.98515300	1.92509000	8.99573700	-2.50835700	-0.95446500	8.18484800	3.37962200	-1.97038500	-0.08017400	-2.29489300	7.70295600	5.24700400	0.91992200	11.16451100
1066	10.65000000	9.03734000	0.49205100	5.37832800	9.04258800	0.01388800	4.15965100	4.56665100	7.55183700	3.45885200	10.62079000	0.70341600	1.71659400	9.70316500	-1.76624800	-0.61686600	8.39441500	2.88645000	-1.92515600	1.37023000	-0.13777300	8.27271500	5.52639100	0.67055200	10.92436900
